#!OML:ASF X:\für Bonn\!DataBase\2005_08_10_Bjorn_Final\c3d\bjorn.ASF
:FULLY-SPECIFIED
:DEGREES
106
root -28.5133 18.1198 -19.6743 -1433.83 -8.50274 -0.989889
lowerback 1.29885 -0.900717 -2.10751
upperback 10.7366 -0.984072 -2.00159
thorax 10.6879 -0.576434 -1.04946
lowerneck -2.45919 7.8251 3.85676
upperneck -2.89794 10.2967 -6.61638
head 0.0872245 5.14451 -2.60843
rclavicle -4.77083e-015 2.14687e-014
rhumerus -48.1044 -1.07038 -92.7183
rradius 34.0729
rwrist 2.82512
rhand -13.3329 16.7821
rfingers 7.12502
rthumb 12.7723 -12.8072
lclavicle -4.77083e-015 2.14687e-014
lhumerus -16.3409 -29.7898 88.9216
lradius 96.2397
lwrist 0.727863
lhand -42.4646 -19.5845
lfingers 7.12502
lthumb -15.3427 9.82627
rfemur -47.313 -4.43212 12.1993
rtibia 69.9592
rfoot -15.1405 19.2255
rtoes -22.5147
lfemur 4.17916 -9.37896 -25.8712
ltibia 28.0199
lfoot -27.3957 -3.25516
ltoes -6.28454
107
root -28.5283 18.1401 -19.5217 -1433.61 -8.22733 -1.30091
lowerback 1.27788 -0.956515 -1.71261
upperback 10.6685 -1.08582 -1.90084
thorax 10.6133 -0.595102 -1.16765
lowerneck -2.55262 7.95196 3.99645
upperneck -2.98978 10.457 -6.77593
head 0.100258 5.22367 -2.67801
rclavicle -1.39149e-014 0
rhumerus -48.9598 -0.582718 -92.943
rradius 35.284
rwrist 2.29031
rhand -13.6547 16.7921
rfingers 7.12502
rthumb 12.462 -12.8164
lclavicle -1.39149e-014 0
lhumerus -16.0795 -30.4042 88.563
lradius 97.2348
lwrist 0.380128
lhand -42.8351 -19.5945
lfingers 7.12502
lthumb -15.6996 9.78867
rfemur -48.0303 -4.73008 12.5053
rtibia 69.2264
rfoot -14.9374 19.0629
rtoes -22.4197
lfemur 4.88266 -9.30252 -25.4609
ltibia 27.2084
lfoot -26.8588 -3.54853
ltoes -7.41795
108
root -28.5451 18.1639 -19.3657 -1433.38 -7.95049 -1.58691
lowerback 1.27311 -1.03998 -1.40794
upperback 10.5571 -1.22485 -1.75891
thorax 10.4821 -0.64299 -1.19292
lowerneck -2.51836 8.08742 4.0956
upperneck -3.10385 10.6312 -7.00022
head 0.0875343 5.3125 -2.76795
rclavicle -2.0276e-014 -3.97569e-015
rhumerus -49.8039 -0.100779 -93.056
rradius 36.4623
rwrist 1.80632
rhand -13.9306 16.7282
rfingers 7.12502
rthumb 12.196 -12.8963
lclavicle -2.0276e-014 -3.97569e-015
lhumerus -15.9191 -30.9619 88.2684
lradius 98.1684
lwrist 0.134578
lhand -43.2136 -19.5482
lfingers 7.12502
lthumb -16.064 9.80591
rfemur -48.6871 -5.00178 12.7877
rtibia 68.4349
rfoot -14.6781 18.8224
rtoes -22.3348
lfemur 5.54662 -9.2814 -25.08
ltibia 26.4565
lfoot -26.2847 -3.8786
ltoes -8.34285
109
root -28.5618 18.1893 -19.2061 -1433.2 -7.66229 -1.87391
lowerback 1.3026 -1.14029 -1.10086
upperback 10.4694 -1.38767 -1.6034
thorax 10.3572 -0.703665 -1.20671
lowerneck -2.44664 8.22045 4.02602
upperneck -3.26621 10.8049 -7.10876
head 0.0366221 5.40384 -2.79442
rclavicle -3.81667e-014 -2.38542e-015
rhumerus -50.5884 0.384688 -93.1388
rradius 37.6432
rwrist 1.20101
rhand -14.1854 16.6545
rfingers 7.12502
rthumb 11.9503 -12.9844
lclavicle -3.81667e-014 -2.38542e-015
lhumerus -15.7883 -31.4732 88.0321
lradius 98.9956
lwrist -0.133769
lhand -43.6133 -19.6993
lfingers 7.12502
lthumb -16.4489 9.62333
rfemur -49.213 -5.31397 13.094
rtibia 67.6007
rfoot -14.4743 18.5867
rtoes -22.7926
lfemur 6.2462 -9.31073 -24.7101
ltibia 25.7444
lfoot -25.6203 -4.29139
ltoes -8.85696
110
root -28.5785 18.2166 -19.0418 -1433.05 -7.38075 -2.18637
lowerback 1.33874 -1.24718 -0.764361
upperback 10.3761 -1.56162 -1.42863
thorax 10.2214 -0.768791 -1.21676
lowerneck -2.3044 8.37206 3.88223
upperneck -3.43074 11.0064 -7.17477
head -0.0323798 5.51107 -2.79746
rclavicle 1.51076e-014 -7.95139e-016
rhumerus -51.3541 0.784209 -93.0997
rradius 38.7475
rwrist 0.690563
rhand -14.4307 16.7305
rfingers 7.12502
rthumb 11.7138 -12.922
lclavicle 1.51076e-014 -7.95139e-016
lhumerus -15.7545 -31.9581 87.8523
lradius 99.7748
lwrist -0.40848
lhand -44.1001 -20.0733
lfingers 7.12502
lthumb -16.9176 9.20985
rfemur -49.6464 -5.6145 13.4292
rtibia 66.7461
rfoot -14.2793 18.3816
rtoes -23.7613
lfemur 6.97464 -9.30848 -24.3047
ltibia 25.0404
lfoot -24.8783 -4.84532
ltoes -9.09186
111
root -28.5968 18.248 -18.8739 -1432.9 -7.08523 -2.49244
lowerback 1.36005 -1.35613 -0.4513
upperback 10.2853 -1.7366 -1.24715
thorax 10.0982 -0.837215 -1.20715
lowerneck -2.2131 8.54092 3.67928
upperneck -3.51979 11.2342 -7.15884
head -0.0762148 5.63015 -2.75876
rclavicle -2.14687e-014 2.14687e-014
rhumerus -52.0823 1.0829 -92.9977
rradius 39.8007
rwrist 0.241215
rhand -14.7077 16.8349
rfingers 7.12502
rthumb 11.4466 -12.8326
lclavicle -2.14687e-014 2.14687e-014
lhumerus -15.7979 -32.4262 87.709
lradius 100.541
lwrist -0.667149
lhand -44.4714 -20.5246
lfingers 7.12502
lthumb -17.2749 8.72757
rfemur -50.0227 -5.90292 13.765
rtibia 65.8812
rfoot -14.0127 18.1173
rtoes -24.8812
lfemur 7.69877 -9.22912 -23.8599
ltibia 24.3407
lfoot -24.019 -5.42143
ltoes -9.55312
112
root -28.6144 18.2851 -18.7029 -1432.74 -6.76974 -2.79693
lowerback 1.35169 -1.479 -0.140294
upperback 10.2158 -1.9302 -1.05288
thorax 10.017 -0.915701 -1.18569
lowerneck -2.21072 8.72194 3.44463
upperneck -3.56759 11.4786 -7.12901
head -0.0942727 5.75592 -2.70437
rclavicle -9.93923e-015 6.36111e-015
rhumerus -52.7042 1.37645 -92.845
rradius 40.7635
rwrist -0.238967
rhand -14.9896 17.0483
rfingers 7.12502
rthumb 11.1747 -12.6341
lclavicle -9.93923e-015 6.36111e-015
lhumerus -15.8981 -32.8351 87.5997
lradius 101.239
lwrist -1.07687
lhand -44.873 -21.0291
lfingers 7.12502
lthumb -17.6614 8.18877
rfemur -50.3629 -6.1646 14.0893
rtibia 64.9939
rfoot -13.5124 17.8655
rtoes -25.5199
lfemur 8.39566 -9.1041 -23.3987
ltibia 23.6408
lfoot -23.0388 -5.981
ltoes -10.2269
